<svg width="39" height="38" viewBox="0 0 39 38" fill="none" xmlns="http://www.w3.org/2000/svg">
<g clip-path="url(#clip0_112_488)">
<path d="M4.86108 28.5V9.5H11.9861C13.2459 9.5 14.454 10.0004 15.3448 10.8912C16.2356 11.782 16.7361 12.9902 16.7361 14.25C16.7361 15.5098 16.2356 16.718 15.3448 17.6088C14.454 18.4996 13.2459 19 11.9861 19C13.2459 19 14.454 19.5004 15.3448 20.3912C16.2356 21.282 16.7361 22.4902 16.7361 23.75C16.7361 25.0098 16.2356 26.218 15.3448 27.1088C14.454 27.9996 13.2459 28.5 11.9861 28.5H4.86108Z" stroke="#00BDD6" stroke-width="2" stroke-linecap="round" stroke-linejoin="round"/>
<path d="M4.86108 19H11.9861" stroke="#00BDD6" stroke-width="2" stroke-linecap="round" stroke-linejoin="round"/>
<path d="M22.2778 20.5834H33.3612C33.3612 19.1136 32.7773 17.7041 31.738 16.6648C30.6988 15.6255 29.2892 15.0417 27.8195 15.0417C26.3498 15.0417 24.9402 15.6255 23.9009 16.6648C22.8617 17.7041 22.2778 19.1136 22.2778 20.5834ZM22.2778 20.5834V23.75C22.4412 24.9354 22.9838 26.0361 23.8246 26.8875C24.6653 27.7389 25.7591 28.2953 26.9424 28.4735C28.1256 28.6517 29.3347 28.4421 30.389 27.8761C31.4432 27.3101 32.286 26.4181 32.7912 25.3334" stroke="#00BDD6" stroke-width="2" stroke-linecap="round" stroke-linejoin="round"/>
<path d="M25.4443 9.5H30.1943" stroke="#00BDD6" stroke-width="2" stroke-linecap="round" stroke-linejoin="round"/>
</g>
<defs>
<clipPath id="clip0_112_488">
<rect width="38" height="38" fill="white" transform="translate(0.111084)"/>
</clipPath>
</defs>
</svg>
