<svg width="204" height="24" viewBox="0 0 204 24" fill="none" xmlns="http://www.w3.org/2000/svg">
<path d="M12 4.62C14.4 4.62 14.688 4.629 15.6366 4.6722C16.2075 4.67894 16.7729 4.78387 17.3082 4.9824C17.699 5.12666 18.0525 5.3567 18.3426 5.6556C18.6415 5.94574 18.8715 6.29921 19.0158 6.69C19.2143 7.22528 19.3193 7.79073 19.326 8.3616C19.3692 9.312 19.38 9.6 19.38 12C19.38 14.4 19.371 14.688 19.3278 15.6366C19.3211 16.2075 19.2161 16.7729 19.0176 17.3082C18.8678 17.6962 18.6385 18.0485 18.3444 18.3426C18.0503 18.6367 17.698 18.866 17.31 19.0158C16.7747 19.2143 16.2093 19.3193 15.6384 19.326C14.6898 19.3692 14.4048 19.3782 12.0018 19.3782C9.5988 19.3782 9.3138 19.3692 8.3652 19.326C7.79433 19.3193 7.22888 19.2143 6.6936 19.0158C6.30281 18.8715 5.94934 18.6415 5.6592 18.3426C5.3603 18.0525 5.13026 17.699 4.986 17.3082C4.78747 16.7729 4.68254 16.2075 4.6758 15.6366C4.6308 14.688 4.62 14.403 4.62 12C4.62 9.597 4.629 9.312 4.6722 8.3634C4.67894 7.79253 4.78387 7.22708 4.9824 6.6918C5.12718 6.30084 5.35785 5.94736 5.6574 5.6574C5.94754 5.3585 6.30101 5.12846 6.6918 4.9842C7.22708 4.78567 7.79253 4.68074 8.3634 4.674C9.312 4.6308 9.6 4.62 12 4.62ZM12 3C9.5556 3 9.249 3.0102 8.2896 3.054C7.54273 3.06982 6.80392 3.21183 6.1044 3.474C5.50426 3.69987 4.96047 4.05366 4.5108 4.5108C4.05301 4.96029 3.69859 5.50409 3.4722 6.1044C3.21003 6.80392 3.06802 7.54273 3.0522 8.2896C3.0102 9.249 3 9.5556 3 12C3 14.4444 3.0102 14.751 3.054 15.7104C3.06982 16.4573 3.21183 17.1961 3.474 17.8956C3.70039 18.4959 4.05481 19.0397 4.5126 19.4892C4.96209 19.947 5.50589 20.3014 6.1062 20.5278C6.80572 20.79 7.54453 20.932 8.2914 20.9478C9.2514 20.9916 9.5574 21.0018 12.0018 21.0018C14.4462 21.0018 14.7528 20.9916 15.7122 20.9478C16.4591 20.932 17.1979 20.79 17.8974 20.5278C18.495 20.2962 19.0378 19.9424 19.491 19.4892C19.9442 19.036 20.298 18.4932 20.5296 17.8956C20.7918 17.1961 20.9338 16.4573 20.9496 15.7104C20.9934 14.7504 21.0036 14.4444 21.0036 12C21.0036 9.5556 20.9934 9.249 20.9496 8.2896C20.9338 7.54273 20.7918 6.80392 20.5296 6.1044C20.3032 5.50409 19.9488 4.96029 19.491 4.5108C19.0415 4.05301 18.4977 3.69859 17.8974 3.4722C17.1979 3.21003 16.4591 3.06802 15.7122 3.0522C14.751 3.0102 14.4444 3 12 3Z" fill="white"/>
<path d="M11.9999 7.38C11.0861 7.38 10.1929 7.65096 9.43315 8.15862C8.6734 8.66627 8.08124 9.38781 7.73156 10.232C7.38188 11.0762 7.29039 12.0051 7.46866 12.9013C7.64692 13.7975 8.08693 14.6207 8.73305 15.2668C9.37917 15.913 10.2024 16.353 11.0986 16.5312C11.9948 16.7095 12.9237 16.618 13.7679 16.2683C14.6121 15.9187 15.3336 15.3265 15.8413 14.5667C16.3489 13.807 16.6199 12.9138 16.6199 12C16.6199 10.7747 16.1331 9.59959 15.2667 8.73317C14.4003 7.86675 13.2252 7.38 11.9999 7.38ZM11.9999 15C11.4065 15 10.8265 14.8241 10.3332 14.4944C9.83983 14.1648 9.45531 13.6962 9.22825 13.1481C9.00118 12.5999 8.94177 11.9967 9.05753 11.4147C9.17328 10.8328 9.45901 10.2982 9.87856 9.87868C10.2981 9.45913 10.8327 9.1734 11.4146 9.05765C11.9966 8.94189 12.5998 9.0013 13.1479 9.22837C13.6961 9.45543 14.1647 9.83995 14.4943 10.3333C14.8239 10.8266 14.9999 11.4067 14.9999 12C14.9999 12.7957 14.6838 13.5587 14.1212 14.1213C13.5586 14.6839 12.7955 15 11.9999 15Z" fill="white"/>
<path d="M16.8041 8.27578C17.4006 8.27578 17.8841 7.79225 17.8841 7.19578C17.8841 6.59932 17.4006 6.11578 16.8041 6.11578C16.2077 6.11578 15.7241 6.59932 15.7241 7.19578C15.7241 7.79225 16.2077 8.27578 16.8041 8.27578Z" fill="white"/>
<path d="M68.744 3.45561C68.6835 3.41819 68.6349 3.36434 68.6039 3.30035C68.5729 3.23636 68.5607 3.16486 68.5687 3.0942C68.5768 3.02353 68.6048 2.95662 68.6494 2.90126C68.6941 2.8459 68.7535 2.80438 68.8209 2.78154C70.1887 2.31025 71.6443 2.14944 73.082 2.31079C74.5197 2.47214 75.9035 2.9516 77.1328 3.71436C77.1773 3.74244 77.2155 3.7796 77.2447 3.8234C77.2739 3.86721 77.2936 3.91668 77.3024 3.96859C77.3113 4.02051 77.3091 4.0737 77.296 4.12472C77.2829 4.17573 77.2593 4.22341 77.2265 4.26467C76.141 5.65177 74.8099 6.82755 73.2993 7.73342C72.0791 6.01991 70.5307 4.56584 68.744 3.45561ZM71.9606 8.43748C70.5914 6.56914 68.79 5.06019 66.7106 4.03967C66.651 4.01075 66.5848 3.99836 66.5189 4.00381C66.4529 4.00925 66.3896 4.03232 66.3356 4.07061C64.6522 5.27473 63.3938 6.98147 62.7412 8.94561C62.7248 8.99583 62.7192 9.04895 62.7248 9.10149C62.7303 9.15402 62.747 9.20479 62.7735 9.25046C62.8001 9.29614 62.836 9.33568 62.8789 9.36651C62.9218 9.39734 62.9707 9.41876 63.0225 9.42936C64.001 9.64028 64.999 9.74775 66 9.74998C68.0586 9.7511 70.0928 9.30319 71.9606 8.43748ZM81.6918 10.9397C81.4534 8.76516 80.4894 6.73438 78.9553 5.17498C78.9179 5.13698 78.8728 5.1074 78.8231 5.0882C78.7733 5.069 78.72 5.06063 78.6668 5.06365C78.6136 5.06667 78.5616 5.081 78.5143 5.10569C78.4671 5.13039 78.4256 5.16488 78.3928 5.20686C77.2062 6.71846 75.7548 8.00182 74.1093 8.99436C74.6234 9.88495 75.0489 10.8238 75.3797 11.7975C76.7228 11.4334 78.1083 11.2493 79.5 11.25C80.0951 11.25 80.6898 11.2835 81.2812 11.3503C81.3363 11.3558 81.3918 11.349 81.4439 11.3305C81.4961 11.312 81.5435 11.2822 81.5827 11.2432C81.6219 11.2042 81.6521 11.1571 81.6709 11.1051C81.6898 11.0531 81.697 10.9976 81.6918 10.9425V10.9397ZM75.794 13.2365C76.0719 14.4186 76.2119 15.6288 76.2112 16.8431C76.2106 18.0054 76.0814 19.164 75.8259 20.2978C75.8096 20.3672 75.8134 20.4399 75.8369 20.5073C75.8604 20.5746 75.9026 20.6339 75.9586 20.6781C76.0146 20.7222 76.0821 20.7495 76.1531 20.7568C76.224 20.764 76.2956 20.7508 76.3593 20.7187C77.7812 20.0054 79.0075 18.9559 79.9318 17.6611C80.856 16.3663 81.4502 14.8656 81.6628 13.289C81.6692 13.2399 81.6658 13.1899 81.6528 13.1421C81.6398 13.0942 81.6174 13.0494 81.587 13.0103C81.5566 12.9712 81.5187 12.9384 81.4755 12.914C81.4324 12.8896 81.3848 12.874 81.3356 12.8681C79.4817 12.6295 77.5989 12.7569 75.794 13.2431V13.2365ZM73.9528 12.2569C73.6505 11.3704 73.2614 10.5159 72.7912 9.70592C70.6721 10.724 68.3509 11.2517 66 11.25C64.901 11.25 63.8051 11.1354 62.73 10.9078C62.6781 10.8968 62.6245 10.897 62.5727 10.9083C62.5209 10.9196 62.4721 10.9418 62.4295 10.9733C62.3869 11.0048 62.3514 11.045 62.3255 11.0913C62.2995 11.1375 62.2837 11.1887 62.279 11.2415C62.2596 11.4915 62.2496 11.7444 62.249 12C62.2485 13.335 62.523 14.6559 63.0552 15.8803C63.5875 17.1046 64.3662 18.2063 65.3428 19.1165C65.384 19.1543 65.4331 19.1824 65.4865 19.1987C65.54 19.215 65.5964 19.2192 65.6516 19.211C65.7069 19.2027 65.7596 19.1822 65.8059 19.1509C65.8522 19.1197 65.891 19.0785 65.9193 19.0303C67.7492 15.9254 70.5828 13.5372 73.9528 12.2597V12.2569ZM67.0959 19.9922C67.0713 20.0352 67.0554 20.0827 67.0492 20.1319C67.043 20.1811 67.0467 20.231 67.0599 20.2788C67.0732 20.3266 67.0958 20.3712 67.1264 20.4102C67.1571 20.4492 67.1951 20.4817 67.2384 20.5059C69.199 21.6052 71.4795 21.9924 73.6931 21.6019C73.7589 21.5904 73.8204 21.5612 73.871 21.5174C73.9215 21.4736 73.9592 21.417 73.98 21.3534C74.4635 19.8998 74.7104 18.3779 74.7112 16.8459C74.7114 15.7905 74.5938 14.7384 74.3606 13.709C71.2887 14.9059 68.7231 17.1249 67.0959 19.9922Z" fill="white"/>
<path d="M140.25 2.25L123.75 2.25C123.352 2.25 122.971 2.40804 122.689 2.68934C122.408 2.97064 122.25 3.35218 122.25 3.75V20.25C122.25 20.6478 122.408 21.0294 122.689 21.3107C122.971 21.592 123.352 21.75 123.75 21.75L140.25 21.75C140.648 21.75 141.029 21.592 141.311 21.3107C141.592 21.0294 141.75 20.6478 141.75 20.25V3.75C141.75 3.35218 141.592 2.97064 141.311 2.68934C141.029 2.40804 140.648 2.25 140.25 2.25ZM140.25 20.25L123.75 20.25V3.75L140.25 3.75V20.25ZM129 10.5V16.5C129 16.6989 128.921 16.8897 128.78 17.0303C128.64 17.171 128.449 17.25 128.25 17.25C128.051 17.25 127.86 17.171 127.72 17.0303C127.579 16.8897 127.5 16.6989 127.5 16.5V10.5C127.5 10.3011 127.579 10.1103 127.72 9.96967C127.86 9.82902 128.051 9.75 128.25 9.75C128.449 9.75 128.64 9.82902 128.78 9.96967C128.921 10.1103 129 10.3011 129 10.5ZM137.25 13.125V16.5C137.25 16.6989 137.171 16.8897 137.03 17.0303C136.89 17.171 136.699 17.25 136.5 17.25C136.301 17.25 136.11 17.171 135.97 17.0303C135.829 16.8897 135.75 16.6989 135.75 16.5V13.125C135.75 12.6277 135.552 12.1508 135.201 11.7992C134.849 11.4475 134.372 11.25 133.875 11.25C133.378 11.25 132.901 11.4475 132.549 11.7992C132.198 12.1508 132 12.6277 132 13.125V16.5C132 16.6989 131.921 16.8897 131.78 17.0303C131.64 17.171 131.449 17.25 131.25 17.25C131.051 17.25 130.86 17.171 130.72 17.0303C130.579 16.8897 130.5 16.6989 130.5 16.5V10.5C130.501 10.3163 130.569 10.1393 130.692 10.0026C130.815 9.86596 130.983 9.7791 131.166 9.75852C131.349 9.73794 131.532 9.78508 131.682 9.89099C131.832 9.99691 131.939 10.1542 131.98 10.3331C132.488 9.98894 133.079 9.78947 133.691 9.75611C134.304 9.72276 134.913 9.85679 135.455 10.1438C135.997 10.4308 136.45 10.86 136.766 11.3852C137.083 11.9105 137.25 12.5119 137.25 13.125ZM129.375 7.875C129.375 8.0975 129.309 8.31501 129.185 8.50002C129.062 8.68502 128.886 8.82922 128.681 8.91436C128.475 8.99951 128.249 9.02179 128.031 8.97838C127.812 8.93498 127.612 8.82783 127.455 8.6705C127.297 8.51316 127.19 8.31271 127.147 8.09448C127.103 7.87625 127.125 7.65005 127.211 7.44448C127.296 7.23891 127.44 7.06321 127.625 6.9396C127.81 6.81598 128.027 6.75 128.25 6.75C128.548 6.75 128.835 6.86853 129.045 7.0795C129.256 7.29048 129.375 7.57663 129.375 7.875Z" fill="white"/>
<path d="M201.416 8.37562L192.416 2.37562C192.293 2.29339 192.148 2.24951 192 2.24951C191.852 2.24951 191.707 2.29339 191.584 2.37562L182.584 8.37562C182.481 8.44417 182.397 8.53703 182.339 8.64595C182.28 8.75488 182.25 8.87649 182.25 9V18.75C182.25 19.1478 182.408 19.5294 182.689 19.8107C182.971 20.092 183.352 20.25 183.75 20.25L200.25 20.25C200.648 20.25 201.029 20.092 201.311 19.8107C201.592 19.5294 201.75 19.1478 201.75 18.75V9C201.75 8.87649 201.72 8.75488 201.661 8.64595C201.603 8.53703 201.519 8.44417 201.416 8.37562ZM189.068 14.25L183.75 18V10.4559L189.068 14.25ZM190.602 15L193.398 15L198.707 18.75L185.293 18.75L190.602 15ZM194.932 14.25L200.25 10.4559V18L194.932 14.25ZM192 3.90094L199.679 9.02062L193.398 13.5L190.604 13.5L184.323 9.02062L192 3.90094Z" fill="white"/>
</svg>
