<svg width="220" height="220" viewBox="0 0 220 220" fill="none" xmlns="http://www.w3.org/2000/svg">
<path d="M66.2401 15.64L74.4801 30.24L72.0001 31.64L66.4801 21.84H66.4401L66.3601 31.08L64.7201 32L56.8001 27.28H56.7601L62.2801 37.08L59.8001 38.48L51.6001 23.92L54.0801 22.52L63.8001 28.56L63.8401 28.52L63.7201 17.08L66.2401 15.64Z" fill="black"/>
<path d="M84.1603 9.35999L81.7603 20L84.0803 27.04L81.3603 27.92L79.0403 20.88L70.8003 13.76L73.8803 12.72L79.4803 17.72H79.5203L81.0403 10.4L84.1603 9.35999Z" fill="black"/>
<path d="M108.798 18.28C109.038 20.92 107.398 23 103.718 23.32L97.1183 23.88L95.7183 7.20005L101.518 6.72005C104.958 6.44005 107.078 7.60005 107.278 10.32C107.398 11.88 106.798 13.48 105.118 14.32V14.36C107.118 14.64 108.598 15.96 108.798 18.28ZM105.798 18.2C105.678 16.72 104.478 15.84 102.278 16.04L99.3183 16.28L99.7183 21.08L102.638 20.84C104.638 20.64 105.958 19.8 105.798 18.2ZM99.1183 13.84L101.838 13.6C103.238 13.48 104.598 12.72 104.438 11.16C104.318 9.84005 103.358 9.04005 101.158 9.24005L98.7183 9.44005L99.1183 13.84Z" fill="black"/>
<path d="M113 6.28003L115.84 6.48003L114.76 20.64L122.52 21.24L122.32 23.8L111.72 23L113 6.28003Z" fill="black"/>
<path d="M125.278 15.6C126.478 10.84 130.718 8.16005 135.598 9.40005C140.278 10.6 142.918 14.84 141.678 19.8C140.398 24.72 136.038 27.2 131.358 26C126.478 24.76 124.038 20.36 125.278 15.6ZM138.798 19.04C139.638 15.72 137.958 12.72 134.958 11.96C131.798 11.16 128.958 13.12 128.158 16.32C127.358 19.48 128.878 22.6 132.038 23.4C134.998 24.16 137.918 22.36 138.798 19.04Z" fill="black"/>
<path d="M144.962 21.084C147.122 16.644 151.602 14.764 156.242 17.044C158.322 18.084 160.162 19.924 160.922 22.404L158.362 23.084C157.802 21.564 156.762 20.284 155.082 19.444C152.362 18.124 149.282 19.124 147.682 22.404C146.202 25.404 147.002 28.644 150.002 30.124C151.202 30.724 152.482 30.964 153.842 30.764L155.082 28.204L151.402 26.404L152.522 24.124L158.762 27.164L155.682 33.444C153.762 33.924 151.162 33.564 148.882 32.444C144.482 30.324 142.602 25.884 144.962 21.084Z" fill="black"/>
<path d="M157.8 34.28L160.56 33.56C160.68 35.44 161.56 37 162.76 37.88C164.24 38.96 165.48 38.88 166.2 37.88C167.08 36.68 166.44 35.68 165.16 33.8C163.64 31.56 162.24 29.16 164.04 26.68C165.6 24.56 168.72 24.32 171.08 26.04C172.68 27.2 173.76 28.88 174.36 30.96L171.68 31.76C171.24 30.04 170.48 28.76 169.6 28.12C168.56 27.36 167.28 27.32 166.52 28.32C165.76 29.28 166.44 30.32 167.64 32.12C169.32 34.72 170.72 36.72 168.8 39.32C166.76 42.12 163.36 41.56 161.16 40C159.4 38.72 158.16 36.8 157.8 34.28Z" fill="black"/>
<path d="M203.2 63.92L188.84 72.52L187.36 70.08L197 64.32L187.76 64.48L186.8 62.88L191.32 54.84V54.8L181.68 60.56L180.2 58.12L194.56 49.52L196.04 51.96L190.28 61.84L190.32 61.88L201.76 61.48L203.2 63.92Z" fill="black"/>
<path d="M209.96 81.64L199.24 79.52L192.28 82.04L191.32 79.36L198.28 76.84L205.2 68.4L206.32 71.48L201.48 77.2V77.24L208.84 78.56L209.96 81.64Z" fill="black"/>
<path d="M201.718 106.524C199.078 106.804 196.958 105.244 196.558 101.564L195.838 94.964L212.478 93.124L213.118 98.924C213.478 102.364 212.398 104.484 209.678 104.804C208.118 104.964 206.518 104.404 205.638 102.764H205.598C205.318 104.764 203.998 106.284 201.718 106.524ZM201.678 103.524C203.158 103.364 203.998 102.124 203.758 99.964L203.438 97.004L198.638 97.524L198.958 100.444C199.198 102.444 200.118 103.724 201.678 103.524ZM205.878 96.724L206.158 99.404C206.318 100.804 207.118 102.124 208.678 101.964C209.998 101.804 210.758 100.844 210.478 98.644L210.198 96.244L205.878 96.724Z" fill="black"/>
<path d="M213.8 110.4L213.68 113.24L199.48 112.56L199.08 120.32L196.52 120.2L197.04 109.6L213.8 110.4Z" fill="black"/>
<path d="M204.8 122.92C209.6 124 212.4 128.16 211.28 133.08C210.2 137.8 206.04 140.56 201.04 139.4C196.08 138.28 193.48 133.96 194.56 129.28C195.72 124.36 200 121.8 204.8 122.92ZM201.72 136.52C205.08 137.28 208 135.52 208.68 132.48C209.4 129.28 207.36 126.52 204.16 125.8C200.96 125.08 197.92 126.68 197.2 129.88C196.52 132.88 198.4 135.76 201.72 136.52Z" fill="black"/>
<path d="M199.844 142.722C204.324 144.762 206.324 149.202 204.204 153.882C203.244 156.002 201.404 157.882 198.964 158.682L198.204 156.122C199.724 155.522 200.964 154.442 201.764 152.722C203.004 149.962 201.924 146.922 198.604 145.402C195.564 144.002 192.364 144.882 190.964 147.922C190.404 149.162 190.204 150.442 190.444 151.762L193.004 152.922L194.724 149.202L197.044 150.242L194.164 156.562L187.804 153.642C187.284 151.722 187.564 149.122 188.604 146.802C190.604 142.522 195.004 140.522 199.844 142.722Z" fill="black"/>
<path d="M186.96 155.92L187.76 158.64C185.88 158.8 184.32 159.76 183.52 160.92C182.48 162.44 182.6 163.68 183.6 164.36C184.8 165.2 185.84 164.56 187.64 163.24C189.84 161.64 192.2 160.2 194.72 161.96C196.88 163.44 197.2 166.6 195.56 169C194.44 170.64 192.8 171.76 190.72 172.4L189.84 169.72C191.56 169.24 192.8 168.48 193.44 167.52C194.16 166.44 194.2 165.2 193.16 164.48C192.16 163.76 191.16 164.44 189.36 165.68C186.8 167.4 184.84 168.88 182.16 167.04C179.32 165.08 179.76 161.64 181.28 159.44C182.56 157.64 184.48 156.32 186.96 155.92Z" fill="black"/>
<path d="M158.56 202.08L149.6 187.92L152 186.4L158.04 195.88L157.64 186.68L159.2 185.68L167.36 189.96H167.4L161.36 180.48L163.76 178.96L172.76 193.12L170.36 194.64L160.32 189.12L160.28 189.16L161 200.6L158.56 202.08Z" fill="black"/>
<path d="M141 209.28L142.88 198.52L140.2 191.6L142.88 190.56L145.56 197.48L154.16 204.16L151.12 205.36L145.28 200.68H145.24L144.12 208.08L141 209.28Z" fill="black"/>
<path d="M115.914 201.724C115.554 199.084 117.074 196.924 120.754 196.404L127.314 195.484L129.594 212.084L123.834 212.884C120.434 213.364 118.234 212.284 117.874 209.564C117.674 208.004 118.194 206.364 119.794 205.444V205.404C117.794 205.244 116.234 204.004 115.914 201.724ZM125.834 205.604L123.154 205.964C121.754 206.164 120.474 206.964 120.674 208.564C120.874 209.884 121.874 210.604 124.034 210.284L126.434 209.964L125.834 205.604ZM118.914 201.604C119.114 203.084 120.354 203.884 122.554 203.564L125.514 203.164L124.874 198.404L121.994 198.804C119.954 199.084 118.674 200.044 118.914 201.604Z" fill="black"/>
<path d="M112.36 213.88L109.52 213.8L109.84 199.6L102.08 199.44L102.12 196.88L112.72 197.12L112.36 213.88Z" fill="black"/>
<path d="M99.644 205.242C98.684 210.082 94.604 212.962 89.644 211.962C84.884 211.002 82.044 206.922 83.044 201.922C84.044 196.922 88.284 194.242 93.004 195.162C97.924 196.162 100.604 200.402 99.644 205.242ZM85.964 202.522C85.284 205.882 87.164 208.762 90.164 209.362C93.364 210.002 96.084 207.882 96.724 204.642C97.364 201.442 95.684 198.402 92.484 197.762C89.444 197.202 86.604 199.162 85.964 202.522Z" fill="black"/>
<path d="M79.6763 200.756C77.7563 205.276 73.3963 207.396 68.6363 205.396C66.4763 204.476 64.5563 202.716 63.7163 200.276L66.2363 199.436C66.8763 200.916 67.9963 202.156 69.7163 202.876C72.4763 204.076 75.5163 202.876 76.9563 199.556C78.2763 196.476 77.3163 193.276 74.2363 191.996C72.9963 191.476 71.7163 191.316 70.3563 191.556L69.2363 194.156L72.9963 195.756L71.9963 198.116L65.5963 195.396L68.3163 188.956C70.2363 188.396 72.7963 188.596 75.1563 189.596C79.6763 191.516 81.7563 195.876 79.6763 200.756Z" fill="black"/>
<path d="M66.1603 188.24L63.4803 189.12C63.2803 187.24 62.2803 185.72 61.0803 184.92C59.5203 183.92 58.3203 184.08 57.6403 185.12C56.8403 186.36 57.5203 187.36 58.8803 189.12C60.5203 191.28 62.0403 193.6 60.3603 196.16C58.9203 198.36 55.8003 198.76 53.3603 197.2C51.6803 196.12 50.5203 194.52 49.8403 192.44L52.4803 191.48C53.0003 193.16 53.8003 194.4 54.7603 195.04C55.8403 195.76 57.1203 195.72 57.8003 194.68C58.4803 193.68 57.7603 192.68 56.4803 190.92C54.6803 188.4 53.1603 186.48 54.9203 183.76C56.8003 180.84 60.2403 181.24 62.5203 182.68C64.3203 183.92 65.6803 185.8 66.1603 188.24Z" fill="black"/>
<path d="M19.2402 161.08L33.1602 151.72L34.7602 154.08L25.4402 160.36L34.6402 159.72L35.6802 161.28L31.6002 169.56L40.9202 163.28L42.5202 165.64L28.6002 175L27.0002 172.64L32.2402 162.48L32.2002 162.44L20.8002 163.44L19.2402 161.08Z" fill="black"/>
<path d="M11.6001 143.68L22.4001 145.28L29.2401 142.4L30.3601 145.04L23.5201 147.92L17.0401 156.68L15.8001 153.68L20.3201 147.72V147.68L12.8801 146.76L11.6001 143.68Z" fill="black"/>
<path d="M18.5264 118.436C21.1664 117.996 23.3664 119.476 23.9664 123.116L25.0464 129.676L8.52636 132.396L7.56636 126.636C7.00636 123.236 8.00636 121.036 10.7264 120.596C12.2464 120.356 13.9264 120.836 14.8864 122.436H14.9264C15.0064 120.396 16.2464 118.796 18.5264 118.436ZM14.8864 128.436L14.4464 125.756C14.2064 124.356 13.3664 123.076 11.8064 123.356C10.4864 123.556 9.76636 124.596 10.1664 126.756L10.5664 129.156L14.8864 128.436ZM18.7264 121.436C17.2464 121.676 16.4864 122.956 16.8464 125.116L17.3264 128.036L22.0864 127.236L21.6064 124.356C21.2464 122.396 20.2864 121.156 18.7264 121.436Z" fill="black"/>
<path d="M6.24023 115.2V112.36L20.4402 112.32L20.4002 104.52H22.9602L23.0002 115.12L6.24023 115.2Z" fill="black"/>
<path d="M14.5565 102.236C9.67646 101.396 6.71646 97.396 7.55646 92.436C8.39646 87.676 12.3965 84.716 17.4365 85.556C22.4765 86.436 25.2765 90.596 24.4365 95.356C23.5965 100.276 19.3965 103.076 14.5565 102.236ZM16.9165 88.476C13.5165 87.876 10.6765 89.836 10.1565 92.876C9.59646 96.116 11.7965 98.756 15.0365 99.316C18.2765 99.876 21.2365 98.116 21.7965 94.876C22.3565 91.836 20.3165 89.076 16.9165 88.476Z" fill="black"/>
<path d="M18.524 82.16C13.924 80.36 11.724 76.04 13.604 71.24C14.444 69.08 16.164 67.12 18.564 66.16L19.444 68.68C17.964 69.32 16.764 70.48 16.084 72.24C14.964 75.04 16.204 78.04 19.604 79.4C22.724 80.64 25.884 79.6 27.084 76.48C27.564 75.24 27.724 73.92 27.404 72.6L24.764 71.56L23.244 75.36L20.884 74.44L23.444 68L29.924 70.56C30.564 72.44 30.404 75.04 29.484 77.44C27.764 81.92 23.444 84.12 18.524 82.16Z" fill="black"/>
<path d="M30.6762 68.3201L29.7562 65.6401C31.6362 65.3601 33.1162 64.3601 33.8762 63.1201C34.8362 61.5601 34.6362 60.3201 33.5962 59.6801C32.3562 58.9201 31.3562 59.6001 29.5962 61.0401C27.5162 62.7601 25.1962 64.3201 22.5962 62.6801C20.3562 61.3201 19.8762 58.2001 21.3962 55.7201C22.3962 54.0001 23.9962 52.8001 26.0362 52.0801L27.0762 54.7201C25.3962 55.2801 24.1962 56.1201 23.5962 57.0801C22.9162 58.2001 22.9962 59.4401 24.0362 60.1201C25.0762 60.8001 26.0362 60.0401 27.7562 58.7201C30.2362 56.8401 32.1162 55.2801 34.8762 57.0001C37.8362 58.8001 37.5562 62.2801 36.1162 64.5601C34.9562 66.3601 33.1162 67.8001 30.6762 68.3201Z" fill="black"/>
<path d="M110 133.16C109.12 133.16 108.4 132.44 108.4 131.56V73.2801C108.4 72.4001 109.12 71.6801 110 71.6801C110.88 71.6801 111.6 72.4001 111.6 73.2801V131.52C111.6 132.44 110.88 133.16 110 133.16Z" fill="#231F20"/>
<path d="M100.52 124.36L110 128.36L119.48 124.36L110 146.84L100.52 124.36Z" fill="#231F20"/>
</svg>
