<svg width="180" height="180" viewBox="0 0 180 180" fill="none" xmlns="http://www.w3.org/2000/svg">
<path d="M42.9145 19.035L51.4615 29.892L49.6135 31.344L43.8715 24.084L43.8385 24.117L44.9275 31.641L43.7065 32.598L36.6445 29.727L36.6115 29.76L42.3535 37.053L40.5055 38.505L31.9585 27.615L33.8395 26.163L42.5515 29.826L42.5845 29.793L41.0335 20.487L42.9145 19.035Z" fill="#1D2128"/>
<path d="M56.622 11.7151L55.995 20.7241L58.767 26.1361L56.688 27.2251L53.916 21.8131L46.293 17.0611L48.669 15.8401L53.85 19.2061L53.883 19.1731L54.18 13.0021L56.622 11.7151Z" fill="#1D2128"/>
<path d="M65.6074 8.55412L70.4584 7.36612C73.6924 6.57412 75.5074 8.09212 76.1344 10.6001C76.8274 13.5041 75.2104 15.3851 72.3394 16.0781L70.0294 16.6391L71.2174 21.4241L68.9074 21.9851L65.6074 8.55412ZM71.5474 14.0651C73.4284 13.6031 74.0554 12.4481 73.7254 11.1281C73.3954 9.67612 72.2734 9.08212 70.6234 9.47812L68.3794 10.0061L69.5014 14.5271L71.5474 14.0651Z" fill="#1D2128"/>
<path d="M87.668 18.9072L84.005 14.2212L82.157 14.3532L82.52 19.2702L80.177 19.4352L79.187 5.67424L84.269 5.31124C87.569 5.04724 89.153 6.89524 89.318 9.43624C89.483 11.7132 88.394 13.1652 86.579 13.8252V13.8912L90.473 18.7092L87.668 18.9072ZM81.992 12.2412L84.236 12.0762C86.117 11.9442 86.975 10.9212 86.876 9.53524C86.777 8.08324 85.754 7.29124 84.071 7.39024L81.662 7.55524L81.992 12.2412Z" fill="#1D2128"/>
<path d="M91.9402 11.708C92.4022 7.68199 95.5702 5.00899 99.6952 5.47099C103.655 5.89999 106.295 9.10099 105.833 13.292C105.338 17.45 102.071 19.991 98.0782 19.529C93.9862 19.067 91.5112 15.767 91.9402 11.708ZM103.391 13.028C103.721 10.223 102.005 7.94599 99.4641 7.68199C96.7911 7.35199 94.6792 9.29899 94.3822 12.005C94.0522 14.678 95.6692 17.021 98.3422 17.351C100.883 17.648 103.061 15.833 103.391 13.028Z" fill="#1D2128"/>
<path d="M105.861 18.9165L107.61 17.6295C107.94 18.3225 108.6 19.2135 109.425 19.4445C110.481 19.7415 111.438 19.3125 111.933 17.3985L114.441 8.68652L116.718 9.34652L114.243 18.0915C113.385 21.0285 111.834 22.4475 108.93 21.6225C107.643 21.2595 106.389 20.3025 105.861 18.9165Z" fill="#1D2128"/>
<path d="M121.045 10.826L128.998 14.39L128.14 16.337L122.365 13.697L120.814 17.195L125.467 19.307L124.576 21.2211L119.923 19.1091L118.405 22.475L124.576 25.247L123.718 27.194L115.402 23.465L121.045 10.826Z" fill="#1D2128"/>
<path d="M128.338 21.8346C130.549 18.5676 134.344 17.3136 138.106 19.7886C139.69 20.8446 140.944 22.5936 141.142 25.0026L138.898 25.2666C138.766 23.8806 138.073 22.4616 136.852 21.6366C134.608 20.1516 132.001 20.7456 130.384 23.1876C128.8 25.5306 129.295 28.2366 131.473 29.6886C132.76 30.5796 134.278 30.5796 135.631 30.1836L136.258 32.3616C134.443 32.9226 132.265 32.8566 130.285 31.5036C127.117 29.4576 125.83 25.5966 128.338 21.8346Z" fill="#1D2128"/>
<path d="M146.233 29.203L143.395 26.497L144.847 24.979L152.272 32.041L150.82 33.559L147.949 30.82L139.831 39.301L138.148 37.684L146.233 29.203Z" fill="#1D2128"/>
<path d="M144.823 41.4267L147.166 41.4597C146.836 42.9777 147.166 44.4297 147.925 45.3537C148.882 46.5417 149.839 46.7397 150.664 46.1457C151.621 45.3867 151.357 44.4297 150.763 42.6807C150.037 40.5687 149.509 38.3247 151.489 36.8067C153.172 35.4867 155.746 35.9817 157.231 37.8957C158.254 39.1827 158.716 40.7337 158.716 42.5157L156.373 42.5487C156.406 41.0637 156.109 39.9087 155.515 39.1827C154.855 38.3577 153.865 38.0277 153.04 38.6547C152.215 39.2817 152.512 40.2057 153.073 41.9217C153.799 44.3637 154.459 46.2777 152.38 47.8947C150.103 49.6437 147.529 48.4557 146.176 46.7067C145.087 45.3207 144.526 43.4727 144.823 41.4267Z" fill="#1D2128"/>
<path d="M174.732 80.981L161.169 83.555L160.74 81.245L169.848 79.529L169.815 79.496L162.588 77.021L162.291 75.503L168.066 70.553L168.033 70.52L158.958 72.269L158.529 69.959L172.092 67.385L172.521 69.695L165.228 75.701V75.734L174.204 78.671L174.732 80.981Z" fill="#1D2128"/>
<path d="M174.885 96.558L167.229 91.839L161.124 91.806L161.157 89.43L167.262 89.463L175.017 84.942L174.984 87.615L169.605 90.651V90.684L174.951 93.819L174.885 96.558Z" fill="#1D2128"/>
<path d="M173.55 105.917L172.362 110.801C171.57 114.002 169.392 114.959 166.884 114.332C163.98 113.639 163.056 111.296 163.782 108.425L164.376 106.115L159.591 104.927L160.152 102.65L173.55 105.917ZM165.861 108.689C165.399 110.57 166.125 111.626 167.478 111.989C168.897 112.319 169.986 111.626 170.382 110.009L170.943 107.765L166.422 106.643L165.861 108.689Z" fill="#1D2128"/>
<path d="M154.187 120.763L160.028 119.674L160.754 117.958L156.233 116.011L157.157 113.866L169.862 119.311L167.849 123.964C166.529 127 164.219 127.528 161.876 126.538C159.797 125.647 159.005 124.03 159.269 122.116L159.203 122.083L153.098 123.304L154.187 120.763ZM162.701 118.816L161.81 120.862C161.051 122.578 161.612 123.832 162.866 124.36C164.186 124.921 165.374 124.393 166.067 122.842L167.024 120.631L162.701 118.816Z" fill="#1D2128"/>
<path d="M158.597 127.888C161.963 130.165 162.854 134.191 160.544 137.623C158.333 140.923 154.274 141.814 150.809 139.438C147.311 137.062 146.618 133.003 148.862 129.703C151.139 126.304 155.198 125.611 158.597 127.888ZM152.129 137.425C154.505 139.009 157.244 138.514 158.663 136.402C160.214 134.158 159.389 131.419 157.178 129.901C154.934 128.35 152.096 128.713 150.611 130.957C149.192 133.069 149.786 135.841 152.129 137.425Z" fill="#1D2128"/>
<path d="M145.764 136.904L146.094 139.049C145.302 138.983 144.246 139.181 143.652 139.808C142.893 140.6 142.86 141.656 144.279 142.976L150.846 149.213L149.262 150.929L142.662 144.659C140.451 142.547 139.923 140.501 142.002 138.323C142.893 137.432 144.312 136.706 145.764 136.904Z" fill="#1D2128"/>
<path d="M145.894 154.099L139.03 159.478L137.743 157.828L142.726 153.901L140.35 150.898L136.324 154.066L135.037 152.416L139.063 149.248L136.786 146.344L131.473 150.535L130.186 148.885L137.347 143.242L145.894 154.099Z" fill="#1D2128"/>
<path d="M132.763 155.457C134.677 158.889 133.984 162.882 130.057 165.027C128.407 165.951 126.229 166.248 124.018 165.357L124.843 163.245C126.163 163.773 127.714 163.806 129.001 163.113C131.377 161.826 132.004 159.219 130.618 156.645C129.232 154.17 126.658 153.378 124.381 154.632C122.995 155.391 122.269 156.678 122.005 158.064L119.794 157.602C120.124 155.754 121.18 153.873 123.325 152.685C126.625 150.903 130.585 151.497 132.763 155.457Z" fill="#1D2128"/>
<path d="M118.025 167.988L121.721 166.701L122.414 168.714L112.712 172.047L112.019 170.034L115.781 168.78L111.986 157.692L114.23 156.933L118.025 167.988Z" fill="#1D2128"/>
<path d="M107.778 161.137L106.656 163.183C105.468 162.16 104.016 161.83 102.828 162.028C101.343 162.292 100.683 163.084 100.881 164.074C101.079 165.295 102.069 165.493 103.884 165.823C106.095 166.186 108.306 166.747 108.735 169.222C109.098 171.334 107.448 173.38 105.105 173.776C103.521 174.073 101.871 173.776 100.287 172.885L101.343 170.806C102.63 171.532 103.785 171.796 104.709 171.664C105.765 171.466 106.491 170.773 106.359 169.717C106.194 168.727 105.237 168.562 103.455 168.199C100.947 167.704 98.967 167.407 98.505 164.767C98.01 161.962 100.287 160.246 102.498 159.85C104.181 159.553 106.062 159.916 107.778 161.137Z" fill="#1D2128"/>
<path d="M53.4702 166.973L58.3542 154.07L60.5652 154.895L57.2982 163.574L63.2052 158.723L64.6242 159.251L65.8122 166.742L69.0792 158.063L71.2902 158.888L66.4062 171.791L64.1952 170.966L62.8752 161.627H62.8422L55.6482 167.765L53.4702 166.973Z" fill="#1D2128"/>
<path d="M40.1636 158.968L48.1826 154.876L51.4166 149.695L53.3966 150.949L50.1626 156.13L49.9976 165.106L47.7206 163.687L47.9186 157.483L47.8856 157.45L42.4406 160.387L40.1636 158.968Z" fill="#1D2128"/>
<path d="M32.774 152.882L29.276 149.318C26.966 146.975 27.296 144.599 29.144 142.784C31.289 140.672 33.698 141.101 35.81 143.246L37.46 144.929L40.958 141.464L42.608 143.147L32.774 152.882ZM34.424 144.929C33.071 143.576 31.784 143.609 30.794 144.566C29.771 145.589 29.804 146.843 30.959 148.064L32.576 149.714L35.876 146.414L34.424 144.929Z" fill="#1D2128"/>
<path d="M30.2726 128.67L28.1276 134.214L29.1836 135.732L33.2096 132.894L34.5626 134.808L23.2766 142.761L20.3396 138.603C18.4256 135.897 19.1846 133.653 21.2636 132.168C23.1116 130.848 24.8936 131.013 26.4116 132.234L26.4776 132.201L28.6226 126.36L30.2726 128.67ZM27.5006 136.92L26.2136 135.105C25.1246 133.554 23.8046 133.389 22.6826 134.181C21.4946 135.039 21.3296 136.326 22.3196 137.679L23.7056 139.626L27.5006 136.92Z" fill="#1D2128"/>
<path d="M21.9209 128.673C18.2249 130.356 14.2979 129.003 12.5819 125.274C10.9319 121.644 12.2849 117.75 16.1129 116.001C19.9409 114.285 23.7689 115.803 25.4519 119.4C27.1679 123.162 25.6169 126.99 21.9209 128.673ZM17.1359 118.212C14.5619 119.4 13.5059 122.007 14.5619 124.35C15.6839 126.825 18.4229 127.584 20.8979 126.462C23.3729 125.34 24.5609 122.766 23.4389 120.291C22.3829 117.981 19.7099 117.057 17.1359 118.212Z" fill="#1D2128"/>
<path d="M20.8985 113.071L18.8855 112.213C19.3475 111.586 19.7105 110.563 19.4795 109.738C19.1825 108.682 18.3245 108.121 16.4435 108.616L7.69849 110.992L7.10449 108.715L15.8825 106.372C18.8195 105.613 20.8655 106.207 21.6245 109.111C21.9875 110.332 21.7895 111.883 20.8985 113.071Z" fill="#1D2128"/>
<path d="M6.1978 104.186L5.1748 95.573L7.2538 95.309L8.0128 101.612L11.8078 101.183L11.1808 96.101L13.2598 95.837L13.8868 100.919L17.5828 100.49L16.7908 93.758L18.8698 93.494L19.9258 102.536L6.1978 104.186Z" fill="#1D2128"/>
<path d="M11.8396 92.2764C7.94562 92.0784 4.84362 89.4384 5.07462 84.9834C5.17362 83.1024 6.06462 81.0894 8.01162 79.6704L9.39762 81.4854C8.27562 82.3434 7.41762 83.5974 7.35162 85.1154C7.21962 87.7884 9.10062 89.7024 12.0046 89.8674C14.8426 89.9994 16.8886 88.2174 16.9876 85.5774C17.0536 84.0264 16.3276 82.6734 15.2716 81.7824L16.8226 80.0994C18.2416 81.3534 19.2976 83.2344 19.1656 85.6434C19.0006 89.4054 16.3606 92.5074 11.8396 92.2764Z" fill="#1D2128"/>
<path d="M8.89981 73.1861L8.07481 77.0141L6.02881 76.5521L8.27281 66.5861L10.3188 67.0481L9.46081 70.9421L20.9118 73.4831L20.4168 75.7601L8.89981 73.1861Z" fill="#1D2128"/>
<path d="M20.116 67.9936L18.961 65.9806C20.446 65.4856 21.502 64.4296 21.931 63.3406C22.492 61.9216 22.129 60.9316 21.205 60.5686C20.083 60.1396 19.39 60.8326 18.169 62.2516C16.717 63.9346 15.067 65.5516 12.724 64.6276C10.711 63.8356 9.85298 61.3936 10.711 59.1496C11.305 57.6316 12.394 56.4106 13.945 55.4866L15.166 57.4666C13.879 58.1926 13.054 59.0176 12.724 59.9086C12.328 60.8986 12.592 61.9216 13.516 62.3176C14.44 62.6806 15.133 61.9876 16.354 60.6346C18.07 58.7536 19.39 57.2026 21.865 58.1926C24.538 59.2486 24.802 62.0866 24.01 64.1326C23.317 65.7826 22.03 67.2016 20.116 67.9936Z" fill="#1D2128"/>
<path d="M87.8703 109.094C87.1443 109.094 86.5503 108.5 86.5503 107.774V59.726C86.5503 59 87.1443 58.406 87.8703 58.406C88.5963 58.406 89.1903 59 89.1903 59.726V107.774C89.1903 108.5 88.5963 109.094 87.8703 109.094Z" fill="#1D2128"/>
<path d="M80.0493 101.607L87.8703 104.94L95.6913 101.607L87.8703 120.153L80.0493 101.607Z" fill="#1D2128"/>
</svg>
