<svg width="40" height="42" viewBox="0 0 40 42" fill="none" xmlns="http://www.w3.org/2000/svg">
<path d="M17.873 1.90211C18.469 0.0539416 21.0838 0.0539432 21.6799 1.90211L24.9123 11.925C25.1793 12.7527 25.9505 13.313 26.8202 13.3111L37.3514 13.2881C39.2933 13.2839 40.1013 15.7707 38.5278 16.9087L29.1936 23.6593C28.9423 23.8411 28.7367 24.0788 28.593 24.3536L19.7764 41.2254L10.9598 24.3536C10.8162 24.0787 10.6106 23.8411 10.3593 23.6593L1.02504 16.9087C-0.548479 15.7707 0.259551 13.2839 2.20145 13.2881L12.7327 13.3111C13.6024 13.313 14.3736 12.7527 14.6405 11.925L17.873 1.90211Z" fill="#00BDD6"/>
</svg>
