<svg width="200" height="224" viewBox="0 0 200 224" fill="none" xmlns="http://www.w3.org/2000/svg">
<path d="M6.8659 0H0V7.72414H6.8659V0Z" fill="#00BDD6"/>
<path d="M13.7318 0H6.8659V7.72414H13.7318V0Z" fill="#00BDD6"/>
<path d="M20.5977 0H13.7318V7.72414H20.5977V0Z" fill="#00BDD6"/>
<path d="M27.4636 0H20.5977V7.72414H27.4636V0Z" fill="#00BDD6"/>
<path d="M34.3295 0H27.4636V7.72414H34.3295V0Z" fill="#00BDD6"/>
<path d="M41.1954 0H34.3295V7.72414H41.1954V0Z" fill="#00BDD6"/>
<path d="M48.0613 0H41.1954V7.72414H48.0613V0Z" fill="#00BDD6"/>
<path d="M61.7931 0H54.9272V7.72414H61.7931V0Z" fill="#00BDD6"/>
<path d="M68.659 0H61.7931V7.72414H68.659V0Z" fill="#00BDD6"/>
<path d="M89.2567 0H82.3908V7.72414H89.2567V0Z" fill="#00BDD6"/>
<path d="M96.1226 0H89.2567V7.72414H96.1226V0Z" fill="#00BDD6"/>
<path d="M109.854 0H102.989V7.72414H109.854V0Z" fill="#00BDD6"/>
<path d="M116.72 0H109.854V7.72414H116.72V0Z" fill="#00BDD6"/>
<path d="M130.452 0H123.586V7.72414H130.452V0Z" fill="#00BDD6"/>
<path d="M144.184 0H137.318V7.72414H144.184V0Z" fill="#00BDD6"/>
<path d="M157.916 0H151.05V7.72414H157.916V0Z" fill="#00BDD6"/>
<path d="M164.782 0H157.916V7.72414H164.782V0Z" fill="#00BDD6"/>
<path d="M171.648 0H164.782V7.72414H171.648V0Z" fill="#00BDD6"/>
<path d="M178.513 0H171.648V7.72414H178.513V0Z" fill="#00BDD6"/>
<path d="M185.379 0H178.513V7.72414H185.379V0Z" fill="#00BDD6"/>
<path d="M192.245 0H185.379V7.72414H192.245V0Z" fill="#00BDD6"/>
<path d="M199.111 0H192.245V7.72414H199.111V0Z" fill="#00BDD6"/>
<path d="M6.8659 7.72414H0V15.4483H6.8659V7.72414Z" fill="#00BDD6"/>
<path d="M48.0613 7.72414H41.1954V15.4483H48.0613V7.72414Z" fill="#00BDD6"/>
<path d="M75.5249 7.72414H68.659V15.4483H75.5249V7.72414Z" fill="#00BDD6"/>
<path d="M82.3908 7.72414H75.5249V15.4483H82.3908V7.72414Z" fill="#00BDD6"/>
<path d="M89.2567 7.72414H82.3908V15.4483H89.2567V7.72414Z" fill="#00BDD6"/>
<path d="M96.1226 7.72414H89.2567V15.4483H96.1226V7.72414Z" fill="#00BDD6"/>
<path d="M102.989 7.72414H96.1226V15.4483H102.989V7.72414Z" fill="#00BDD6"/>
<path d="M116.72 7.72414H109.854V15.4483H116.72V7.72414Z" fill="#00BDD6"/>
<path d="M123.586 7.72414H116.72V15.4483H123.586V7.72414Z" fill="#00BDD6"/>
<path d="M137.318 7.72414H130.452V15.4483H137.318V7.72414Z" fill="#00BDD6"/>
<path d="M157.916 7.72414H151.05V15.4483H157.916V7.72414Z" fill="#00BDD6"/>
<path d="M199.111 7.72414H192.245V15.4483H199.111V7.72414Z" fill="#00BDD6"/>
<path d="M6.8659 15.4483H0V23.1724H6.8659V15.4483Z" fill="#00BDD6"/>
<path d="M20.5977 15.4483H13.7318V23.1724H20.5977V15.4483Z" fill="#00BDD6"/>
<path d="M27.4636 15.4483H20.5977V23.1724H27.4636V15.4483Z" fill="#00BDD6"/>
<path d="M34.3295 15.4483H27.4636V23.1724H34.3295V15.4483Z" fill="#00BDD6"/>
<path d="M48.0613 15.4483H41.1954V23.1724H48.0613V15.4483Z" fill="#00BDD6"/>
<path d="M61.7931 15.4483H54.9272V23.1724H61.7931V15.4483Z" fill="#00BDD6"/>
<path d="M68.659 15.4483H61.7931V23.1724H68.659V15.4483Z" fill="#00BDD6"/>
<path d="M75.5249 15.4483H68.659V23.1724H75.5249V15.4483Z" fill="#00BDD6"/>
<path d="M109.854 15.4483H102.989V23.1724H109.854V15.4483Z" fill="#00BDD6"/>
<path d="M130.452 15.4483H123.586V23.1724H130.452V15.4483Z" fill="#00BDD6"/>
<path d="M157.916 15.4483H151.05V23.1724H157.916V15.4483Z" fill="#00BDD6"/>
<path d="M171.648 15.4483H164.782V23.1724H171.648V15.4483Z" fill="#00BDD6"/>
<path d="M178.513 15.4483H171.648V23.1724H178.513V15.4483Z" fill="#00BDD6"/>
<path d="M185.379 15.4483H178.513V23.1724H185.379V15.4483Z" fill="#00BDD6"/>
<path d="M199.111 15.4483H192.245V23.1724H199.111V15.4483Z" fill="#00BDD6"/>
<path d="M6.8659 23.1724H0V30.8966H6.8659V23.1724Z" fill="#00BDD6"/>
<path d="M20.5977 23.1724H13.7318V30.8966H20.5977V23.1724Z" fill="#00BDD6"/>
<path d="M27.4636 23.1724H20.5977V30.8966H27.4636V23.1724Z" fill="#00BDD6"/>
<path d="M34.3295 23.1724H27.4636V30.8966H34.3295V23.1724Z" fill="#00BDD6"/>
<path d="M48.0613 23.1724H41.1954V30.8966H48.0613V23.1724Z" fill="#00BDD6"/>
<path d="M96.1226 23.1724H89.2567V30.8966H96.1226V23.1724Z" fill="#00BDD6"/>
<path d="M102.989 23.1724H96.1226V30.8966H102.989V23.1724Z" fill="#00BDD6"/>
<path d="M109.854 23.1724H102.989V30.8966H109.854V23.1724Z" fill="#00BDD6"/>
<path d="M137.318 23.1724H130.452V30.8966H137.318V23.1724Z" fill="#00BDD6"/>
<path d="M144.184 23.1724H137.318V30.8966H144.184V23.1724Z" fill="#00BDD6"/>
<path d="M157.916 23.1724H151.05V30.8966H157.916V23.1724Z" fill="#00BDD6"/>
<path d="M171.648 23.1724H164.782V30.8966H171.648V23.1724Z" fill="#00BDD6"/>
<path d="M178.513 23.1724H171.648V30.8966H178.513V23.1724Z" fill="#00BDD6"/>
<path d="M185.379 23.1724H178.513V30.8966H185.379V23.1724Z" fill="#00BDD6"/>
<path d="M199.111 23.1724H192.245V30.8966H199.111V23.1724Z" fill="#00BDD6"/>
<path d="M6.8659 30.8966H0V38.6207H6.8659V30.8966Z" fill="#00BDD6"/>
<path d="M20.5977 30.8966H13.7318V38.6207H20.5977V30.8966Z" fill="#00BDD6"/>
<path d="M27.4636 30.8966H20.5977V38.6207H27.4636V30.8966Z" fill="#00BDD6"/>
<path d="M34.3295 30.8966H27.4636V38.6207H34.3295V30.8966Z" fill="#00BDD6"/>
<path d="M48.0613 30.8966H41.1954V38.6207H48.0613V30.8966Z" fill="#00BDD6"/>
<path d="M61.7931 30.8966H54.9272V38.6207H61.7931V30.8966Z" fill="#00BDD6"/>
<path d="M102.989 30.8966H96.1226V38.6207H102.989V30.8966Z" fill="#00BDD6"/>
<path d="M109.854 30.8966H102.989V38.6207H109.854V30.8966Z" fill="#00BDD6"/>
<path d="M123.586 30.8966H116.72V38.6207H123.586V30.8966Z" fill="#00BDD6"/>
<path d="M130.452 30.8966H123.586V38.6207H130.452V30.8966Z" fill="#00BDD6"/>
<path d="M157.916 30.8966H151.05V38.6207H157.916V30.8966Z" fill="#00BDD6"/>
<path d="M171.648 30.8966H164.782V38.6207H171.648V30.8966Z" fill="#00BDD6"/>
<path d="M178.513 30.8966H171.648V38.6207H178.513V30.8966Z" fill="#00BDD6"/>
<path d="M185.379 30.8966H178.513V38.6207H185.379V30.8966Z" fill="#00BDD6"/>
<path d="M199.111 30.8966H192.245V38.6207H199.111V30.8966Z" fill="#00BDD6"/>
<path d="M6.8659 38.6207H0V46.3448H6.8659V38.6207Z" fill="#00BDD6"/>
<path d="M48.0613 38.6207H41.1954V46.3448H48.0613V38.6207Z" fill="#00BDD6"/>
<path d="M89.2567 38.6207H82.3908V46.3448H89.2567V38.6207Z" fill="#00BDD6"/>
<path d="M96.1226 38.6207H89.2567V46.3448H96.1226V38.6207Z" fill="#00BDD6"/>
<path d="M130.452 38.6207H123.586V46.3448H130.452V38.6207Z" fill="#00BDD6"/>
<path d="M144.184 38.6207H137.318V46.3448H144.184V38.6207Z" fill="#00BDD6"/>
<path d="M157.916 38.6207H151.05V46.3448H157.916V38.6207Z" fill="#00BDD6"/>
<path d="M199.111 38.6207H192.245V46.3448H199.111V38.6207Z" fill="#00BDD6"/>
<path d="M6.8659 46.3448H0V54.069H6.8659V46.3448Z" fill="#00BDD6"/>
<path d="M13.7318 46.3448H6.8659V54.069H13.7318V46.3448Z" fill="#00BDD6"/>
<path d="M20.5977 46.3448H13.7318V54.069H20.5977V46.3448Z" fill="#00BDD6"/>
<path d="M27.4636 46.3448H20.5977V54.069H27.4636V46.3448Z" fill="#00BDD6"/>
<path d="M34.3295 46.3448H27.4636V54.069H34.3295V46.3448Z" fill="#00BDD6"/>
<path d="M41.1954 46.3448H34.3295V54.069H41.1954V46.3448Z" fill="#00BDD6"/>
<path d="M48.0613 46.3448H41.1954V54.069H48.0613V46.3448Z" fill="#00BDD6"/>
<path d="M61.7931 46.3448H54.9272V54.069H61.7931V46.3448Z" fill="#00BDD6"/>
<path d="M75.5249 46.3448H68.659V54.069H75.5249V46.3448Z" fill="#00BDD6"/>
<path d="M89.2567 46.3448H82.3908V54.069H89.2567V46.3448Z" fill="#00BDD6"/>
<path d="M102.989 46.3448H96.1226V54.069H102.989V46.3448Z" fill="#00BDD6"/>
<path d="M116.72 46.3448H109.854V54.069H116.72V46.3448Z" fill="#00BDD6"/>
<path d="M130.452 46.3448H123.586V54.069H130.452V46.3448Z" fill="#00BDD6"/>
<path d="M144.184 46.3448H137.318V54.069H144.184V46.3448Z" fill="#00BDD6"/>
<path d="M157.916 46.3448H151.05V54.069H157.916V46.3448Z" fill="#00BDD6"/>
<path d="M164.782 46.3448H157.916V54.069H164.782V46.3448Z" fill="#00BDD6"/>
<path d="M171.648 46.3448H164.782V54.069H171.648V46.3448Z" fill="#00BDD6"/>
<path d="M178.513 46.3448H171.648V54.069H178.513V46.3448Z" fill="#00BDD6"/>
<path d="M185.379 46.3448H178.513V54.069H185.379V46.3448Z" fill="#00BDD6"/>
<path d="M192.245 46.3448H185.379V54.069H192.245V46.3448Z" fill="#00BDD6"/>
<path d="M199.111 46.3448H192.245V54.069H199.111V46.3448Z" fill="#00BDD6"/>
<path d="M75.5249 54.069H68.659V61.7931H75.5249V54.069Z" fill="#00BDD6"/>
<path d="M82.3908 54.069H75.5249V61.7931H82.3908V54.069Z" fill="#00BDD6"/>
<path d="M102.989 54.069H96.1226V61.7931H102.989V54.069Z" fill="#00BDD6"/>
<path d="M109.854 54.069H102.989V61.7931H109.854V54.069Z" fill="#00BDD6"/>
<path d="M130.452 54.069H123.586V61.7931H130.452V54.069Z" fill="#00BDD6"/>
<path d="M137.318 54.069H130.452V61.7931H137.318V54.069Z" fill="#00BDD6"/>
<path d="M13.7318 61.7931H6.8659V69.5172H13.7318V61.7931Z" fill="#00BDD6"/>
<path d="M34.3295 61.7931H27.4636V69.5172H34.3295V61.7931Z" fill="#00BDD6"/>
<path d="M48.0613 61.7931H41.1954V69.5172H48.0613V61.7931Z" fill="#00BDD6"/>
<path d="M82.3908 61.7931H75.5249V69.5172H82.3908V61.7931Z" fill="#00BDD6"/>
<path d="M89.2567 61.7931H82.3908V69.5172H89.2567V61.7931Z" fill="#00BDD6"/>
<path d="M96.1226 61.7931H89.2567V69.5172H96.1226V61.7931Z" fill="#00BDD6"/>
<path d="M116.72 61.7931H109.854V69.5172H116.72V61.7931Z" fill="#00BDD6"/>
<path d="M130.452 61.7931H123.586V69.5172H130.452V61.7931Z" fill="#00BDD6"/>
<path d="M144.184 61.7931H137.318V69.5172H144.184V61.7931Z" fill="#00BDD6"/>
<path d="M151.05 61.7931H144.184V69.5172H151.05V61.7931Z" fill="#00BDD6"/>
<path d="M171.648 61.7931H164.782V69.5172H171.648V61.7931Z" fill="#00BDD6"/>
<path d="M185.379 61.7931H178.513V69.5172H185.379V61.7931Z" fill="#00BDD6"/>
<path d="M199.111 61.7931H192.245V69.5172H199.111V61.7931Z" fill="#00BDD6"/>
<path d="M20.5977 69.5172H13.7318V77.2414H20.5977V69.5172Z" fill="#00BDD6"/>
<path d="M27.4636 69.5172H20.5977V77.2414H27.4636V69.5172Z" fill="#00BDD6"/>
<path d="M61.7931 69.5172H54.9272V77.2414H61.7931V69.5172Z" fill="#00BDD6"/>
<path d="M68.659 69.5172H61.7931V77.2414H68.659V69.5172Z" fill="#00BDD6"/>
<path d="M75.5249 69.5172H68.659V77.2414H75.5249V69.5172Z" fill="#00BDD6"/>
<path d="M82.3908 69.5172H75.5249V77.2414H82.3908V69.5172Z" fill="#00BDD6"/>
<path d="M130.452 69.5172H123.586V77.2414H130.452V69.5172Z" fill="#00BDD6"/>
<path d="M137.318 69.5172H130.452V77.2414H137.318V69.5172Z" fill="#00BDD6"/>
<path d="M144.184 69.5172H137.318V77.2414H144.184V69.5172Z" fill="#00BDD6"/>
<path d="M151.05 69.5172H144.184V77.2414H151.05V69.5172Z" fill="#00BDD6"/>
<path d="M157.916 69.5172H151.05V77.2414H157.916V69.5172Z" fill="#00BDD6"/>
<path d="M164.782 69.5172H157.916V77.2414H164.782V69.5172Z" fill="#00BDD6"/>
<path d="M185.379 69.5172H178.513V77.2414H185.379V69.5172Z" fill="#00BDD6"/>
<path d="M192.245 69.5172H185.379V77.2414H192.245V69.5172Z" fill="#00BDD6"/>
<path d="M6.8659 77.2414H0V84.9655H6.8659V77.2414Z" fill="#00BDD6"/>
<path d="M34.3295 77.2414H27.4636V84.9655H34.3295V77.2414Z" fill="#00BDD6"/>
<path d="M48.0613 77.2414H41.1954V84.9655H48.0613V77.2414Z" fill="#00BDD6"/>
<path d="M61.7931 77.2414H54.9272V84.9655H61.7931V77.2414Z" fill="#00BDD6"/>
<path d="M82.3908 77.2414H75.5249V84.9655H82.3908V77.2414Z" fill="#00BDD6"/>
<path d="M89.2567 77.2414H82.3908V84.9655H89.2567V77.2414Z" fill="#00BDD6"/>
<path d="M96.1226 77.2414H89.2567V84.9655H96.1226V77.2414Z" fill="#00BDD6"/>
<path d="M116.72 77.2414H109.854V84.9655H116.72V77.2414Z" fill="#00BDD6"/>
<path d="M137.318 77.2414H130.452V84.9655H137.318V77.2414Z" fill="#00BDD6"/>
<path d="M157.916 77.2414H151.05V84.9655H157.916V77.2414Z" fill="#00BDD6"/>
<path d="M164.782 77.2414H157.916V84.9655H164.782V77.2414Z" fill="#00BDD6"/>
<path d="M185.379 77.2414H178.513V84.9655H185.379V77.2414Z" fill="#00BDD6"/>
<path d="M192.245 77.2414H185.379V84.9655H192.245V77.2414Z" fill="#00BDD6"/>
<path d="M199.111 77.2414H192.245V84.9655H199.111V77.2414Z" fill="#00BDD6"/>
<path d="M6.8659 84.9655H0V92.6897H6.8659V84.9655Z" fill="#00BDD6"/>
<path d="M27.4636 84.9655H20.5977V92.6897H27.4636V84.9655Z" fill="#00BDD6"/>
<path d="M34.3295 84.9655H27.4636V92.6897H34.3295V84.9655Z" fill="#00BDD6"/>
<path d="M41.1954 84.9655H34.3295V92.6897H41.1954V84.9655Z" fill="#00BDD6"/>
<path d="M61.7931 84.9655H54.9272V92.6897H61.7931V84.9655Z" fill="#00BDD6"/>
<path d="M68.659 84.9655H61.7931V92.6897H68.659V84.9655Z" fill="#00BDD6"/>
<path d="M75.5249 84.9655H68.659V92.6897H75.5249V84.9655Z" fill="#00BDD6"/>
<path d="M89.2567 84.9655H82.3908V92.6897H89.2567V84.9655Z" fill="#00BDD6"/>
<path d="M96.1226 84.9655H89.2567V92.6897H96.1226V84.9655Z" fill="#00BDD6"/>
<path d="M123.586 84.9655H116.72V92.6897H123.586V84.9655Z" fill="#00BDD6"/>
<path d="M137.318 84.9655H130.452V92.6897H137.318V84.9655Z" fill="#00BDD6"/>
<path d="M178.513 84.9655H171.648V92.6897H178.513V84.9655Z" fill="#00BDD6"/>
<path d="M41.1954 92.6897H34.3295V100.414H41.1954V92.6897Z" fill="#00BDD6"/>
<path d="M48.0613 92.6897H41.1954V100.414H48.0613V92.6897Z" fill="#00BDD6"/>
<path d="M61.7931 92.6897H54.9272V100.414H61.7931V92.6897Z" fill="#00BDD6"/>
<path d="M68.659 92.6897H61.7931V100.414H68.659V92.6897Z" fill="#00BDD6"/>
<path d="M82.3908 92.6897H75.5249V100.414H82.3908V92.6897Z" fill="#00BDD6"/>
<path d="M123.586 92.6897H116.72V100.414H123.586V92.6897Z" fill="#00BDD6"/>
<path d="M137.318 92.6897H130.452V100.414H137.318V92.6897Z" fill="#00BDD6"/>
<path d="M144.184 92.6897H137.318V100.414H144.184V92.6897Z" fill="#00BDD6"/>
<path d="M157.916 92.6897H151.05V100.414H157.916V92.6897Z" fill="#00BDD6"/>
<path d="M171.648 92.6897H164.782V100.414H171.648V92.6897Z" fill="#00BDD6"/>
<path d="M185.379 92.6897H178.513V100.414H185.379V92.6897Z" fill="#00BDD6"/>
<path d="M13.7318 100.414H6.8659V108.138H13.7318V100.414Z" fill="#00BDD6"/>
<path d="M27.4636 100.414H20.5977V108.138H27.4636V100.414Z" fill="#00BDD6"/>
<path d="M34.3295 100.414H27.4636V108.138H34.3295V100.414Z" fill="#00BDD6"/>
<path d="M68.659 100.414H61.7931V108.138H68.659V100.414Z" fill="#00BDD6"/>
<path d="M82.3908 100.414H75.5249V108.138H82.3908V100.414Z" fill="#00BDD6"/>
<path d="M102.989 100.414H96.1226V108.138H102.989V100.414Z" fill="#00BDD6"/>
<path d="M123.586 100.414H116.72V108.138H123.586V100.414Z" fill="#00BDD6"/>
<path d="M137.318 100.414H130.452V108.138H137.318V100.414Z" fill="#00BDD6"/>
<path d="M157.916 100.414H151.05V108.138H157.916V100.414Z" fill="#00BDD6"/>
<path d="M178.513 100.414H171.648V108.138H178.513V100.414Z" fill="#00BDD6"/>
<path d="M6.8659 108.138H0V115.862H6.8659V108.138Z" fill="#00BDD6"/>
<path d="M41.1954 108.138H34.3295V115.862H41.1954V108.138Z" fill="#00BDD6"/>
<path d="M48.0613 108.138H41.1954V115.862H48.0613V108.138Z" fill="#00BDD6"/>
<path d="M75.5249 108.138H68.659V115.862H75.5249V108.138Z" fill="#00BDD6"/>
<path d="M82.3908 108.138H75.5249V115.862H82.3908V108.138Z" fill="#00BDD6"/>
<path d="M89.2567 108.138H82.3908V115.862H89.2567V108.138Z" fill="#00BDD6"/>
<path d="M96.1226 108.138H89.2567V115.862H96.1226V108.138Z" fill="#00BDD6"/>
<path d="M130.452 108.138H123.586V115.862H130.452V108.138Z" fill="#00BDD6"/>
<path d="M137.318 108.138H130.452V115.862H137.318V108.138Z" fill="#00BDD6"/>
<path d="M144.184 108.138H137.318V115.862H144.184V108.138Z" fill="#00BDD6"/>
<path d="M151.05 108.138H144.184V115.862H151.05V108.138Z" fill="#00BDD6"/>
<path d="M185.379 108.138H178.513V115.862H185.379V108.138Z" fill="#00BDD6"/>
<path d="M199.111 108.138H192.245V115.862H199.111V108.138Z" fill="#00BDD6"/>
<path d="M20.5977 115.862H13.7318V123.586H20.5977V115.862Z" fill="#00BDD6"/>
<path d="M41.1954 115.862H34.3295V123.586H41.1954V115.862Z" fill="#00BDD6"/>
<path d="M54.9272 115.862H48.0613V123.586H54.9272V115.862Z" fill="#00BDD6"/>
<path d="M116.72 115.862H109.854V123.586H116.72V115.862Z" fill="#00BDD6"/>
<path d="M137.318 115.862H130.452V123.586H137.318V115.862Z" fill="#00BDD6"/>
<path d="M34.3295 123.586H27.4636V131.31H34.3295V123.586Z" fill="#00BDD6"/>
<path d="M48.0613 123.586H41.1954V131.31H48.0613V123.586Z" fill="#00BDD6"/>
<path d="M54.9272 123.586H48.0613V131.31H54.9272V123.586Z" fill="#00BDD6"/>
<path d="M75.5249 123.586H68.659V131.31H75.5249V123.586Z" fill="#00BDD6"/>
<path d="M102.989 123.586H96.1226V131.31H102.989V123.586Z" fill="#00BDD6"/>
<path d="M116.72 123.586H109.854V131.31H116.72V123.586Z" fill="#00BDD6"/>
<path d="M123.586 123.586H116.72V131.31H123.586V123.586Z" fill="#00BDD6"/>
<path d="M144.184 123.586H137.318V131.31H144.184V123.586Z" fill="#00BDD6"/>
<path d="M151.05 123.586H144.184V131.31H151.05V123.586Z" fill="#00BDD6"/>
<path d="M157.916 123.586H151.05V131.31H157.916V123.586Z" fill="#00BDD6"/>
<path d="M178.513 123.586H171.648V131.31H178.513V123.586Z" fill="#00BDD6"/>
<path d="M185.379 123.586H178.513V131.31H185.379V123.586Z" fill="#00BDD6"/>
<path d="M192.245 123.586H185.379V131.31H192.245V123.586Z" fill="#00BDD6"/>
<path d="M13.7318 131.31H6.8659V139.034H13.7318V131.31Z" fill="#00BDD6"/>
<path d="M34.3295 131.31H27.4636V139.034H34.3295V131.31Z" fill="#00BDD6"/>
<path d="M54.9272 131.31H48.0613V139.034H54.9272V131.31Z" fill="#00BDD6"/>
<path d="M61.7931 131.31H54.9272V139.034H61.7931V131.31Z" fill="#00BDD6"/>
<path d="M68.659 131.31H61.7931V139.034H68.659V131.31Z" fill="#00BDD6"/>
<path d="M75.5249 131.31H68.659V139.034H75.5249V131.31Z" fill="#00BDD6"/>
<path d="M82.3908 131.31H75.5249V139.034H82.3908V131.31Z" fill="#00BDD6"/>
<path d="M89.2567 131.31H82.3908V139.034H89.2567V131.31Z" fill="#00BDD6"/>
<path d="M109.854 131.31H102.989V139.034H109.854V131.31Z" fill="#00BDD6"/>
<path d="M116.72 131.31H109.854V139.034H116.72V131.31Z" fill="#00BDD6"/>
<path d="M123.586 131.31H116.72V139.034H123.586V131.31Z" fill="#00BDD6"/>
<path d="M130.452 131.31H123.586V139.034H130.452V131.31Z" fill="#00BDD6"/>
<path d="M137.318 131.31H130.452V139.034H137.318V131.31Z" fill="#00BDD6"/>
<path d="M144.184 131.31H137.318V139.034H144.184V131.31Z" fill="#00BDD6"/>
<path d="M164.782 131.31H157.916V139.034H164.782V131.31Z" fill="#00BDD6"/>
<path d="M171.648 131.31H164.782V139.034H171.648V131.31Z" fill="#00BDD6"/>
<path d="M178.513 131.31H171.648V139.034H178.513V131.31Z" fill="#00BDD6"/>
<path d="M192.245 131.31H185.379V139.034H192.245V131.31Z" fill="#00BDD6"/>
<path d="M199.111 131.31H192.245V139.034H199.111V131.31Z" fill="#00BDD6"/>
<path d="M13.7318 139.034H6.8659V146.759H13.7318V139.034Z" fill="#00BDD6"/>
<path d="M20.5977 139.034H13.7318V146.759H20.5977V139.034Z" fill="#00BDD6"/>
<path d="M34.3295 139.034H27.4636V146.759H34.3295V139.034Z" fill="#00BDD6"/>
<path d="M41.1954 139.034H34.3295V146.759H41.1954V139.034Z" fill="#00BDD6"/>
<path d="M48.0613 139.034H41.1954V146.759H48.0613V139.034Z" fill="#00BDD6"/>
<path d="M54.9272 139.034H48.0613V146.759H54.9272V139.034Z" fill="#00BDD6"/>
<path d="M68.659 139.034H61.7931V146.759H68.659V139.034Z" fill="#00BDD6"/>
<path d="M75.5249 139.034H68.659V146.759H75.5249V139.034Z" fill="#00BDD6"/>
<path d="M102.989 139.034H96.1226V146.759H102.989V139.034Z" fill="#00BDD6"/>
<path d="M109.854 139.034H102.989V146.759H109.854V139.034Z" fill="#00BDD6"/>
<path d="M123.586 139.034H116.72V146.759H123.586V139.034Z" fill="#00BDD6"/>
<path d="M130.452 139.034H123.586V146.759H130.452V139.034Z" fill="#00BDD6"/>
<path d="M137.318 139.034H130.452V146.759H137.318V139.034Z" fill="#00BDD6"/>
<path d="M157.916 139.034H151.05V146.759H157.916V139.034Z" fill="#00BDD6"/>
<path d="M185.379 139.034H178.513V146.759H185.379V139.034Z" fill="#00BDD6"/>
<path d="M192.245 139.034H185.379V146.759H192.245V139.034Z" fill="#00BDD6"/>
<path d="M6.8659 146.759H0V154.483H6.8659V146.759Z" fill="#00BDD6"/>
<path d="M13.7318 146.759H6.8659V154.483H13.7318V146.759Z" fill="#00BDD6"/>
<path d="M27.4636 146.759H20.5977V154.483H27.4636V146.759Z" fill="#00BDD6"/>
<path d="M34.3295 146.759H27.4636V154.483H34.3295V146.759Z" fill="#00BDD6"/>
<path d="M41.1954 146.759H34.3295V154.483H41.1954V146.759Z" fill="#00BDD6"/>
<path d="M61.7931 146.759H54.9272V154.483H61.7931V146.759Z" fill="#00BDD6"/>
<path d="M89.2567 146.759H82.3908V154.483H89.2567V146.759Z" fill="#00BDD6"/>
<path d="M109.854 146.759H102.989V154.483H109.854V146.759Z" fill="#00BDD6"/>
<path d="M151.05 146.759H144.184V154.483H151.05V146.759Z" fill="#00BDD6"/>
<path d="M157.916 146.759H151.05V154.483H157.916V146.759Z" fill="#00BDD6"/>
<path d="M178.513 146.759H171.648V154.483H178.513V146.759Z" fill="#00BDD6"/>
<path d="M185.379 146.759H178.513V154.483H185.379V146.759Z" fill="#00BDD6"/>
<path d="M192.245 146.759H185.379V154.483H192.245V146.759Z" fill="#00BDD6"/>
<path d="M199.111 146.759H192.245V154.483H199.111V146.759Z" fill="#00BDD6"/>
<path d="M13.7318 154.483H6.8659V162.207H13.7318V154.483Z" fill="#00BDD6"/>
<path d="M48.0613 154.483H41.1954V162.207H48.0613V154.483Z" fill="#00BDD6"/>
<path d="M54.9272 154.483H48.0613V162.207H54.9272V154.483Z" fill="#00BDD6"/>
<path d="M61.7931 154.483H54.9272V162.207H61.7931V154.483Z" fill="#00BDD6"/>
<path d="M68.659 154.483H61.7931V162.207H68.659V154.483Z" fill="#00BDD6"/>
<path d="M75.5249 154.483H68.659V162.207H75.5249V154.483Z" fill="#00BDD6"/>
<path d="M82.3908 154.483H75.5249V162.207H82.3908V154.483Z" fill="#00BDD6"/>
<path d="M89.2567 154.483H82.3908V162.207H89.2567V154.483Z" fill="#00BDD6"/>
<path d="M109.854 154.483H102.989V162.207H109.854V154.483Z" fill="#00BDD6"/>
<path d="M116.72 154.483H109.854V162.207H116.72V154.483Z" fill="#00BDD6"/>
<path d="M123.586 154.483H116.72V162.207H123.586V154.483Z" fill="#00BDD6"/>
<path d="M144.184 154.483H137.318V162.207H144.184V154.483Z" fill="#00BDD6"/>
<path d="M151.05 154.483H144.184V162.207H151.05V154.483Z" fill="#00BDD6"/>
<path d="M157.916 154.483H151.05V162.207H157.916V154.483Z" fill="#00BDD6"/>
<path d="M164.782 154.483H157.916V162.207H164.782V154.483Z" fill="#00BDD6"/>
<path d="M171.648 154.483H164.782V162.207H171.648V154.483Z" fill="#00BDD6"/>
<path d="M178.513 154.483H171.648V162.207H178.513V154.483Z" fill="#00BDD6"/>
<path d="M192.245 154.483H185.379V162.207H192.245V154.483Z" fill="#00BDD6"/>
<path d="M199.111 154.483H192.245V162.207H199.111V154.483Z" fill="#00BDD6"/>
<path d="M68.659 162.207H61.7931V169.931H68.659V162.207Z" fill="#00BDD6"/>
<path d="M82.3908 162.207H75.5249V169.931H82.3908V162.207Z" fill="#00BDD6"/>
<path d="M89.2567 162.207H82.3908V169.931H89.2567V162.207Z" fill="#00BDD6"/>
<path d="M96.1226 162.207H89.2567V169.931H96.1226V162.207Z" fill="#00BDD6"/>
<path d="M102.989 162.207H96.1226V169.931H102.989V162.207Z" fill="#00BDD6"/>
<path d="M116.72 162.207H109.854V169.931H116.72V162.207Z" fill="#00BDD6"/>
<path d="M123.586 162.207H116.72V169.931H123.586V162.207Z" fill="#00BDD6"/>
<path d="M137.318 162.207H130.452V169.931H137.318V162.207Z" fill="#00BDD6"/>
<path d="M144.184 162.207H137.318V169.931H144.184V162.207Z" fill="#00BDD6"/>
<path d="M171.648 162.207H164.782V169.931H171.648V162.207Z" fill="#00BDD6"/>
<path d="M192.245 162.207H185.379V169.931H192.245V162.207Z" fill="#00BDD6"/>
<path d="M199.111 162.207H192.245V169.931H199.111V162.207Z" fill="#00BDD6"/>
<path d="M6.8659 169.931H0V177.655H6.8659V169.931Z" fill="#00BDD6"/>
<path d="M13.7318 169.931H6.8659V177.655H13.7318V169.931Z" fill="#00BDD6"/>
<path d="M20.5977 169.931H13.7318V177.655H20.5977V169.931Z" fill="#00BDD6"/>
<path d="M27.4636 169.931H20.5977V177.655H27.4636V169.931Z" fill="#00BDD6"/>
<path d="M34.3295 169.931H27.4636V177.655H34.3295V169.931Z" fill="#00BDD6"/>
<path d="M41.1954 169.931H34.3295V177.655H41.1954V169.931Z" fill="#00BDD6"/>
<path d="M48.0613 169.931H41.1954V177.655H48.0613V169.931Z" fill="#00BDD6"/>
<path d="M68.659 169.931H61.7931V177.655H68.659V169.931Z" fill="#00BDD6"/>
<path d="M75.5249 169.931H68.659V177.655H75.5249V169.931Z" fill="#00BDD6"/>
<path d="M82.3908 169.931H75.5249V177.655H82.3908V169.931Z" fill="#00BDD6"/>
<path d="M89.2567 169.931H82.3908V177.655H89.2567V169.931Z" fill="#00BDD6"/>
<path d="M96.1226 169.931H89.2567V177.655H96.1226V169.931Z" fill="#00BDD6"/>
<path d="M102.989 169.931H96.1226V177.655H102.989V169.931Z" fill="#00BDD6"/>
<path d="M116.72 169.931H109.854V177.655H116.72V169.931Z" fill="#00BDD6"/>
<path d="M123.586 169.931H116.72V177.655H123.586V169.931Z" fill="#00BDD6"/>
<path d="M144.184 169.931H137.318V177.655H144.184V169.931Z" fill="#00BDD6"/>
<path d="M157.916 169.931H151.05V177.655H157.916V169.931Z" fill="#00BDD6"/>
<path d="M171.648 169.931H164.782V177.655H171.648V169.931Z" fill="#00BDD6"/>
<path d="M199.111 169.931H192.245V177.655H199.111V169.931Z" fill="#00BDD6"/>
<path d="M6.8659 177.655H0V185.379H6.8659V177.655Z" fill="#00BDD6"/>
<path d="M48.0613 177.655H41.1954V185.379H48.0613V177.655Z" fill="#00BDD6"/>
<path d="M96.1226 177.655H89.2567V185.379H96.1226V177.655Z" fill="#00BDD6"/>
<path d="M102.989 177.655H96.1226V185.379H102.989V177.655Z" fill="#00BDD6"/>
<path d="M116.72 177.655H109.854V185.379H116.72V177.655Z" fill="#00BDD6"/>
<path d="M130.452 177.655H123.586V185.379H130.452V177.655Z" fill="#00BDD6"/>
<path d="M144.184 177.655H137.318V185.379H144.184V177.655Z" fill="#00BDD6"/>
<path d="M171.648 177.655H164.782V185.379H171.648V177.655Z" fill="#00BDD6"/>
<path d="M185.379 177.655H178.513V185.379H185.379V177.655Z" fill="#00BDD6"/>
<path d="M199.111 177.655H192.245V185.379H199.111V177.655Z" fill="#00BDD6"/>
<path d="M6.8659 185.379H0V193.103H6.8659V185.379Z" fill="#00BDD6"/>
<path d="M20.5977 185.379H13.7318V193.103H20.5977V185.379Z" fill="#00BDD6"/>
<path d="M27.4636 185.379H20.5977V193.103H27.4636V185.379Z" fill="#00BDD6"/>
<path d="M34.3295 185.379H27.4636V193.103H34.3295V185.379Z" fill="#00BDD6"/>
<path d="M48.0613 185.379H41.1954V193.103H48.0613V185.379Z" fill="#00BDD6"/>
<path d="M61.7931 185.379H54.9272V193.103H61.7931V185.379Z" fill="#00BDD6"/>
<path d="M82.3908 185.379H75.5249V193.103H82.3908V185.379Z" fill="#00BDD6"/>
<path d="M144.184 185.379H137.318V193.103H144.184V185.379Z" fill="#00BDD6"/>
<path d="M151.05 185.379H144.184V193.103H151.05V185.379Z" fill="#00BDD6"/>
<path d="M157.916 185.379H151.05V193.103H157.916V185.379Z" fill="#00BDD6"/>
<path d="M164.782 185.379H157.916V193.103H164.782V185.379Z" fill="#00BDD6"/>
<path d="M171.648 185.379H164.782V193.103H171.648V185.379Z" fill="#00BDD6"/>
<path d="M178.513 185.379H171.648V193.103H178.513V185.379Z" fill="#00BDD6"/>
<path d="M185.379 185.379H178.513V193.103H185.379V185.379Z" fill="#00BDD6"/>
<path d="M192.245 185.379H185.379V193.103H192.245V185.379Z" fill="#00BDD6"/>
<path d="M199.111 185.379H192.245V193.103H199.111V185.379Z" fill="#00BDD6"/>
<path d="M6.8659 193.103H0V200.828H6.8659V193.103Z" fill="#00BDD6"/>
<path d="M20.5977 193.103H13.7318V200.828H20.5977V193.103Z" fill="#00BDD6"/>
<path d="M27.4636 193.103H20.5977V200.828H27.4636V193.103Z" fill="#00BDD6"/>
<path d="M34.3295 193.103H27.4636V200.828H34.3295V193.103Z" fill="#00BDD6"/>
<path d="M48.0613 193.103H41.1954V200.828H48.0613V193.103Z" fill="#00BDD6"/>
<path d="M68.659 193.103H61.7931V200.828H68.659V193.103Z" fill="#00BDD6"/>
<path d="M89.2567 193.103H82.3908V200.828H89.2567V193.103Z" fill="#00BDD6"/>
<path d="M96.1226 193.103H89.2567V200.828H96.1226V193.103Z" fill="#00BDD6"/>
<path d="M102.989 193.103H96.1226V200.828H102.989V193.103Z" fill="#00BDD6"/>
<path d="M109.854 193.103H102.989V200.828H109.854V193.103Z" fill="#00BDD6"/>
<path d="M116.72 193.103H109.854V200.828H116.72V193.103Z" fill="#00BDD6"/>
<path d="M123.586 193.103H116.72V200.828H123.586V193.103Z" fill="#00BDD6"/>
<path d="M137.318 193.103H130.452V200.828H137.318V193.103Z" fill="#00BDD6"/>
<path d="M157.916 193.103H151.05V200.828H157.916V193.103Z" fill="#00BDD6"/>
<path d="M164.782 193.103H157.916V200.828H164.782V193.103Z" fill="#00BDD6"/>
<path d="M185.379 193.103H178.513V200.828H185.379V193.103Z" fill="#00BDD6"/>
<path d="M199.111 193.103H192.245V200.828H199.111V193.103Z" fill="#00BDD6"/>
<path d="M6.8659 200.828H0V208.552H6.8659V200.828Z" fill="#00BDD6"/>
<path d="M20.5977 200.828H13.7318V208.552H20.5977V200.828Z" fill="#00BDD6"/>
<path d="M27.4636 200.828H20.5977V208.552H27.4636V200.828Z" fill="#00BDD6"/>
<path d="M34.3295 200.828H27.4636V208.552H34.3295V200.828Z" fill="#00BDD6"/>
<path d="M48.0613 200.828H41.1954V208.552H48.0613V200.828Z" fill="#00BDD6"/>
<path d="M75.5249 200.828H68.659V208.552H75.5249V200.828Z" fill="#00BDD6"/>
<path d="M123.586 200.828H116.72V208.552H123.586V200.828Z" fill="#00BDD6"/>
<path d="M151.05 200.828H144.184V208.552H151.05V200.828Z" fill="#00BDD6"/>
<path d="M178.513 200.828H171.648V208.552H178.513V200.828Z" fill="#00BDD6"/>
<path d="M6.8659 208.552H0V216.276H6.8659V208.552Z" fill="#00BDD6"/>
<path d="M48.0613 208.552H41.1954V216.276H48.0613V208.552Z" fill="#00BDD6"/>
<path d="M61.7931 208.552H54.9272V216.276H61.7931V208.552Z" fill="#00BDD6"/>
<path d="M75.5249 208.552H68.659V216.276H75.5249V208.552Z" fill="#00BDD6"/>
<path d="M82.3908 208.552H75.5249V216.276H82.3908V208.552Z" fill="#00BDD6"/>
<path d="M89.2567 208.552H82.3908V216.276H89.2567V208.552Z" fill="#00BDD6"/>
<path d="M102.989 208.552H96.1226V216.276H102.989V208.552Z" fill="#00BDD6"/>
<path d="M109.854 208.552H102.989V216.276H109.854V208.552Z" fill="#00BDD6"/>
<path d="M116.72 208.552H109.854V216.276H116.72V208.552Z" fill="#00BDD6"/>
<path d="M130.452 208.552H123.586V216.276H130.452V208.552Z" fill="#00BDD6"/>
<path d="M137.318 208.552H130.452V216.276H137.318V208.552Z" fill="#00BDD6"/>
<path d="M151.05 208.552H144.184V216.276H151.05V208.552Z" fill="#00BDD6"/>
<path d="M157.916 208.552H151.05V216.276H157.916V208.552Z" fill="#00BDD6"/>
<path d="M178.513 208.552H171.648V216.276H178.513V208.552Z" fill="#00BDD6"/>
<path d="M192.245 208.552H185.379V216.276H192.245V208.552Z" fill="#00BDD6"/>
<path d="M199.111 208.552H192.245V216.276H199.111V208.552Z" fill="#00BDD6"/>
<path d="M6.8659 216.276H0V224H6.8659V216.276Z" fill="#00BDD6"/>
<path d="M13.7318 216.276H6.8659V224H13.7318V216.276Z" fill="#00BDD6"/>
<path d="M20.5977 216.276H13.7318V224H20.5977V216.276Z" fill="#00BDD6"/>
<path d="M27.4636 216.276H20.5977V224H27.4636V216.276Z" fill="#00BDD6"/>
<path d="M34.3295 216.276H27.4636V224H34.3295V216.276Z" fill="#00BDD6"/>
<path d="M41.1954 216.276H34.3295V224H41.1954V216.276Z" fill="#00BDD6"/>
<path d="M48.0613 216.276H41.1954V224H48.0613V216.276Z" fill="#00BDD6"/>
<path d="M68.659 216.276H61.7931V224H68.659V216.276Z" fill="#00BDD6"/>
<path d="M75.5249 216.276H68.659V224H75.5249V216.276Z" fill="#00BDD6"/>
<path d="M89.2567 216.276H82.3908V224H89.2567V216.276Z" fill="#00BDD6"/>
<path d="M96.1226 216.276H89.2567V224H96.1226V216.276Z" fill="#00BDD6"/>
<path d="M102.989 216.276H96.1226V224H102.989V216.276Z" fill="#00BDD6"/>
<path d="M116.72 216.276H109.854V224H116.72V216.276Z" fill="#00BDD6"/>
<path d="M123.586 216.276H116.72V224H123.586V216.276Z" fill="#00BDD6"/>
<path d="M130.452 216.276H123.586V224H130.452V216.276Z" fill="#00BDD6"/>
<path d="M151.05 216.276H144.184V224H151.05V216.276Z" fill="#00BDD6"/>
<path d="M157.916 216.276H151.05V224H157.916V216.276Z" fill="#00BDD6"/>
<path d="M164.782 216.276H157.916V224H164.782V216.276Z" fill="#00BDD6"/>
<path d="M171.648 216.276H164.782V224H171.648V216.276Z" fill="#00BDD6"/>
<path d="M178.513 216.276H171.648V224H178.513V216.276Z" fill="#00BDD6"/>
<path d="M185.379 216.276H178.513V224H185.379V216.276Z" fill="#00BDD6"/>
<path d="M199.111 216.276H192.245V224H199.111V216.276Z" fill="#00BDD6"/>
</svg>
